<mxfile host="Electron" agent="Mozilla/5.0 (Windows NT 10.0; Win64; x64) AppleWebKit/537.36 (KHTML, like Gecko) draw.io/28.2.7 Chrome/138.0.7204.251 Electron/37.7.1 Safari/537.36" version="28.2.7">
  <diagram name="Page-1" id="dnogcoYyMHIk1B-pPEHQ">
    <mxGraphModel dx="667" dy="457" grid="1" gridSize="10" guides="1" tooltips="1" connect="1" arrows="1" fold="1" page="1" pageScale="1" pageWidth="850" pageHeight="1100" math="0" shadow="0">
      <root>
        <mxCell id="0" />
        <mxCell id="1" parent="0" />
        <mxCell id="LQkXcUbPEHpwg-fe2e8A-1" value="" style="rounded=0;whiteSpace=wrap;html=1;dashed=1;" parent="1" vertex="1">
          <mxGeometry x="41.02" y="30" width="88.98" height="376.5" as="geometry" />
        </mxCell>
        <mxCell id="LQkXcUbPEHpwg-fe2e8A-3" value="crm" style="image;aspect=fixed;html=1;points=[];align=center;fontSize=12;image=img/lib/azure2/general/Folder_Blank.svg;" parent="1" vertex="1">
          <mxGeometry x="60" y="110" width="56.68" height="46" as="geometry" />
        </mxCell>
        <mxCell id="LQkXcUbPEHpwg-fe2e8A-4" value="erp" style="image;aspect=fixed;html=1;points=[];align=center;fontSize=12;image=img/lib/azure2/general/Folder_Blank.svg;" parent="1" vertex="1">
          <mxGeometry x="59.02" y="287" width="52.98" height="43" as="geometry" />
        </mxCell>
        <mxCell id="LQkXcUbPEHpwg-fe2e8A-5" value="sources" style="rounded=1;whiteSpace=wrap;html=1;" parent="1" vertex="1">
          <mxGeometry x="41.02" y="30" width="88.98" height="40" as="geometry" />
        </mxCell>
        <mxCell id="LQkXcUbPEHpwg-fe2e8A-6" value="" style="rounded=0;whiteSpace=wrap;html=1;fillColor=#f8cecc;strokeColor=#b85450;" parent="1" vertex="1">
          <mxGeometry x="180" y="30" width="110" height="380" as="geometry" />
        </mxCell>
        <mxCell id="1pG7g3fp1ptie3DI5gmH-9" style="edgeStyle=orthogonalEdgeStyle;rounded=0;orthogonalLoop=1;jettySize=auto;html=1;exitX=1;exitY=0.5;exitDx=0;exitDy=0;entryX=0;entryY=0.5;entryDx=0;entryDy=0;" parent="1" source="LQkXcUbPEHpwg-fe2e8A-7" target="1pG7g3fp1ptie3DI5gmH-2" edge="1">
          <mxGeometry relative="1" as="geometry" />
        </mxCell>
        <mxCell id="LQkXcUbPEHpwg-fe2e8A-7" value="crm_cust_info" style="shape=process;whiteSpace=wrap;html=1;backgroundOutline=1;shadow=0;" parent="1" vertex="1">
          <mxGeometry x="180" y="80" width="110" height="30" as="geometry" />
        </mxCell>
        <mxCell id="1pG7g3fp1ptie3DI5gmH-13" style="edgeStyle=orthogonalEdgeStyle;rounded=0;orthogonalLoop=1;jettySize=auto;html=1;exitX=1;exitY=0.5;exitDx=0;exitDy=0;entryX=0;entryY=0.5;entryDx=0;entryDy=0;" parent="1" source="LQkXcUbPEHpwg-fe2e8A-8" target="1pG7g3fp1ptie3DI5gmH-3" edge="1">
          <mxGeometry relative="1" as="geometry" />
        </mxCell>
        <mxCell id="LQkXcUbPEHpwg-fe2e8A-8" value="crm_prd_info" style="shape=process;whiteSpace=wrap;html=1;backgroundOutline=1;shadow=0;" parent="1" vertex="1">
          <mxGeometry x="180" y="118" width="110" height="30" as="geometry" />
        </mxCell>
        <mxCell id="1pG7g3fp1ptie3DI5gmH-14" style="edgeStyle=orthogonalEdgeStyle;rounded=0;orthogonalLoop=1;jettySize=auto;html=1;exitX=1;exitY=0.5;exitDx=0;exitDy=0;entryX=0;entryY=0.5;entryDx=0;entryDy=0;" parent="1" source="LQkXcUbPEHpwg-fe2e8A-9" target="1pG7g3fp1ptie3DI5gmH-4" edge="1">
          <mxGeometry relative="1" as="geometry" />
        </mxCell>
        <mxCell id="LQkXcUbPEHpwg-fe2e8A-9" value="crm_sales_details" style="shape=process;whiteSpace=wrap;html=1;backgroundOutline=1;shadow=0;size=0;" parent="1" vertex="1">
          <mxGeometry x="180" y="156" width="110" height="30" as="geometry" />
        </mxCell>
        <mxCell id="1pG7g3fp1ptie3DI5gmH-17" style="edgeStyle=orthogonalEdgeStyle;rounded=0;orthogonalLoop=1;jettySize=auto;html=1;exitX=1;exitY=0.5;exitDx=0;exitDy=0;entryX=0;entryY=0.5;entryDx=0;entryDy=0;" parent="1" source="LQkXcUbPEHpwg-fe2e8A-10" target="1pG7g3fp1ptie3DI5gmH-5" edge="1">
          <mxGeometry relative="1" as="geometry" />
        </mxCell>
        <mxCell id="LQkXcUbPEHpwg-fe2e8A-10" value="erp_px_cat_glv2" style="shape=process;whiteSpace=wrap;html=1;backgroundOutline=1;shadow=0;" parent="1" vertex="1">
          <mxGeometry x="180" y="340" width="110" height="30" as="geometry" />
        </mxCell>
        <mxCell id="1pG7g3fp1ptie3DI5gmH-16" style="edgeStyle=orthogonalEdgeStyle;rounded=0;orthogonalLoop=1;jettySize=auto;html=1;exitX=1;exitY=0.5;exitDx=0;exitDy=0;entryX=0;entryY=0.5;entryDx=0;entryDy=0;" parent="1" source="LQkXcUbPEHpwg-fe2e8A-12" target="1pG7g3fp1ptie3DI5gmH-6" edge="1">
          <mxGeometry relative="1" as="geometry" />
        </mxCell>
        <mxCell id="LQkXcUbPEHpwg-fe2e8A-12" value="erp_loc_a101" style="shape=process;whiteSpace=wrap;html=1;backgroundOutline=1;shadow=0;size=0.09090909090909091;" parent="1" vertex="1">
          <mxGeometry x="180" y="300" width="110" height="30" as="geometry" />
        </mxCell>
        <mxCell id="1pG7g3fp1ptie3DI5gmH-15" style="edgeStyle=orthogonalEdgeStyle;rounded=0;orthogonalLoop=1;jettySize=auto;html=1;exitX=1;exitY=0.5;exitDx=0;exitDy=0;entryX=0;entryY=0.5;entryDx=0;entryDy=0;" parent="1" source="LQkXcUbPEHpwg-fe2e8A-13" target="1pG7g3fp1ptie3DI5gmH-7" edge="1">
          <mxGeometry relative="1" as="geometry" />
        </mxCell>
        <mxCell id="LQkXcUbPEHpwg-fe2e8A-13" value="erp_cust_az12" style="shape=process;whiteSpace=wrap;html=1;backgroundOutline=1;shadow=0;" parent="1" vertex="1">
          <mxGeometry x="180" y="260" width="110" height="30" as="geometry" />
        </mxCell>
        <mxCell id="LQkXcUbPEHpwg-fe2e8A-15" value="Bronze layer" style="ellipse;whiteSpace=wrap;html=1;fillColor=#d5e8d4;strokeColor=#82b366;" parent="1" vertex="1">
          <mxGeometry x="195" y="10" width="80" height="40" as="geometry" />
        </mxCell>
        <mxCell id="LQkXcUbPEHpwg-fe2e8A-21" value="" style="shape=step;perimeter=stepPerimeter;whiteSpace=wrap;html=1;fixedSize=1;fillColor=#e1d5e7;strokeColor=#9673a6;" parent="1" vertex="1">
          <mxGeometry x="120" y="122" width="60" height="26" as="geometry" />
        </mxCell>
        <mxCell id="LQkXcUbPEHpwg-fe2e8A-23" value="" style="shape=step;perimeter=stepPerimeter;whiteSpace=wrap;html=1;fixedSize=1;fillColor=#e1d5e7;strokeColor=#9673a6;" parent="1" vertex="1">
          <mxGeometry x="116.68" y="300" width="60" height="26" as="geometry" />
        </mxCell>
        <mxCell id="1pG7g3fp1ptie3DI5gmH-1" value="" style="rounded=0;whiteSpace=wrap;html=1;fillColor=#f8cecc;strokeColor=#b85450;" parent="1" vertex="1">
          <mxGeometry x="330" y="30" width="110" height="380" as="geometry" />
        </mxCell>
        <mxCell id="1pG7g3fp1ptie3DI5gmH-2" value="crm_cust_info" style="shape=process;whiteSpace=wrap;html=1;backgroundOutline=1;shadow=0;" parent="1" vertex="1">
          <mxGeometry x="330" y="80" width="110" height="30" as="geometry" />
        </mxCell>
        <mxCell id="_4AEon8Sl0ysmGjEEzwS-23" style="edgeStyle=orthogonalEdgeStyle;rounded=0;orthogonalLoop=1;jettySize=auto;html=1;exitX=1;exitY=0.5;exitDx=0;exitDy=0;entryX=0;entryY=0.5;entryDx=0;entryDy=0;" edge="1" parent="1" source="1pG7g3fp1ptie3DI5gmH-3" target="_4AEon8Sl0ysmGjEEzwS-12">
          <mxGeometry relative="1" as="geometry" />
        </mxCell>
        <mxCell id="1pG7g3fp1ptie3DI5gmH-3" value="crm_prd_info" style="shape=process;whiteSpace=wrap;html=1;backgroundOutline=1;shadow=0;" parent="1" vertex="1">
          <mxGeometry x="330" y="118" width="110" height="30" as="geometry" />
        </mxCell>
        <mxCell id="_4AEon8Sl0ysmGjEEzwS-25" style="edgeStyle=orthogonalEdgeStyle;rounded=0;orthogonalLoop=1;jettySize=auto;html=1;exitX=1;exitY=0.5;exitDx=0;exitDy=0;" edge="1" parent="1" source="1pG7g3fp1ptie3DI5gmH-4">
          <mxGeometry relative="1" as="geometry">
            <mxPoint x="520" y="111" as="targetPoint" />
          </mxGeometry>
        </mxCell>
        <mxCell id="1pG7g3fp1ptie3DI5gmH-4" value="crm_sales_details" style="shape=process;whiteSpace=wrap;html=1;backgroundOutline=1;shadow=0;size=0;" parent="1" vertex="1">
          <mxGeometry x="330" y="156" width="110" height="30" as="geometry" />
        </mxCell>
        <mxCell id="_4AEon8Sl0ysmGjEEzwS-28" style="edgeStyle=orthogonalEdgeStyle;rounded=0;orthogonalLoop=1;jettySize=auto;html=1;exitX=1;exitY=0.5;exitDx=0;exitDy=0;" edge="1" parent="1" source="1pG7g3fp1ptie3DI5gmH-5" target="_4AEon8Sl0ysmGjEEzwS-9">
          <mxGeometry relative="1" as="geometry" />
        </mxCell>
        <mxCell id="1pG7g3fp1ptie3DI5gmH-5" value="erp_px_cat_glv2" style="shape=process;whiteSpace=wrap;html=1;backgroundOutline=1;shadow=0;" parent="1" vertex="1">
          <mxGeometry x="330" y="340" width="110" height="30" as="geometry" />
        </mxCell>
        <mxCell id="_4AEon8Sl0ysmGjEEzwS-27" style="edgeStyle=orthogonalEdgeStyle;rounded=0;orthogonalLoop=1;jettySize=auto;html=1;exitX=1;exitY=0.75;exitDx=0;exitDy=0;" edge="1" parent="1" source="1pG7g3fp1ptie3DI5gmH-6">
          <mxGeometry relative="1" as="geometry">
            <mxPoint x="500" y="210" as="targetPoint" />
          </mxGeometry>
        </mxCell>
        <mxCell id="1pG7g3fp1ptie3DI5gmH-6" value="erp_loc_a101" style="shape=process;whiteSpace=wrap;html=1;backgroundOutline=1;shadow=0;size=0.09090909090909091;" parent="1" vertex="1">
          <mxGeometry x="330" y="300" width="110" height="30" as="geometry" />
        </mxCell>
        <mxCell id="_4AEon8Sl0ysmGjEEzwS-26" style="edgeStyle=orthogonalEdgeStyle;rounded=0;orthogonalLoop=1;jettySize=auto;html=1;exitX=1;exitY=0.5;exitDx=0;exitDy=0;" edge="1" parent="1" source="1pG7g3fp1ptie3DI5gmH-7">
          <mxGeometry relative="1" as="geometry">
            <mxPoint x="520" y="210" as="targetPoint" />
          </mxGeometry>
        </mxCell>
        <mxCell id="1pG7g3fp1ptie3DI5gmH-7" value="erp_cust_az12" style="shape=process;whiteSpace=wrap;html=1;backgroundOutline=1;shadow=0;" parent="1" vertex="1">
          <mxGeometry x="330" y="260" width="110" height="30" as="geometry" />
        </mxCell>
        <mxCell id="1pG7g3fp1ptie3DI5gmH-8" value="silver layer" style="ellipse;whiteSpace=wrap;html=1;fillColor=#d5e8d4;strokeColor=#82b366;" parent="1" vertex="1">
          <mxGeometry x="345" y="10" width="80" height="40" as="geometry" />
        </mxCell>
        <mxCell id="_4AEon8Sl0ysmGjEEzwS-9" value="" style="rounded=0;whiteSpace=wrap;html=1;fillColor=#f8cecc;strokeColor=#b85450;" vertex="1" parent="1">
          <mxGeometry x="530" y="40" width="110" height="380" as="geometry" />
        </mxCell>
        <mxCell id="_4AEon8Sl0ysmGjEEzwS-10" value="fact_sales" style="shape=process;whiteSpace=wrap;html=1;backgroundOutline=1;shadow=0;" vertex="1" parent="1">
          <mxGeometry x="530" y="88" width="110" height="30" as="geometry" />
        </mxCell>
        <mxCell id="_4AEon8Sl0ysmGjEEzwS-11" value="dim_customers" style="shape=process;whiteSpace=wrap;html=1;backgroundOutline=1;shadow=0;" vertex="1" parent="1">
          <mxGeometry x="530" y="190" width="110" height="30" as="geometry" />
        </mxCell>
        <mxCell id="_4AEon8Sl0ysmGjEEzwS-12" value="dim_products" style="shape=process;whiteSpace=wrap;html=1;backgroundOutline=1;shadow=0;size=0;" vertex="1" parent="1">
          <mxGeometry x="530" y="310" width="110" height="30" as="geometry" />
        </mxCell>
        <mxCell id="_4AEon8Sl0ysmGjEEzwS-16" value="gold layer" style="ellipse;whiteSpace=wrap;html=1;fillColor=#d5e8d4;strokeColor=#82b366;" vertex="1" parent="1">
          <mxGeometry x="545" y="10" width="80" height="40" as="geometry" />
        </mxCell>
        <mxCell id="_4AEon8Sl0ysmGjEEzwS-24" style="edgeStyle=orthogonalEdgeStyle;rounded=0;orthogonalLoop=1;jettySize=auto;html=1;exitX=1;exitY=0.5;exitDx=0;exitDy=0;entryX=0.028;entryY=0.435;entryDx=0;entryDy=0;entryPerimeter=0;" edge="1" parent="1" source="1pG7g3fp1ptie3DI5gmH-2" target="_4AEon8Sl0ysmGjEEzwS-9">
          <mxGeometry relative="1" as="geometry" />
        </mxCell>
      </root>
    </mxGraphModel>
  </diagram>
</mxfile>
